<?xml version="1.0" standalone="no"?>
<!DOCTYPE svg PUBLIC "-//W3C//DTD SVG 20010904//EN"
 "http://www.w3.org/TR/2001/REC-SVG-20010904/DTD/svg10.dtd">
<svg version="1.0" xmlns="http://www.w3.org/2000/svg"
 width="1024.000000pt" height="1024.000000pt" viewBox="0 0 1024.000000 1024.000000"
 preserveAspectRatio="xMidYMid meet">
<metadata>
Created by potrace 1.14, written by Peter Selinger 2001-2017
</metadata>
<g transform="translate(0.000000,1024.000000) scale(0.100000,-0.100000)"
fill="#000000" stroke="none">
<path d="M4999 7963 c-1 -5 -1 -12 0 -17 1 -5 -8 -6 -19 -3 -17 4 -19 3 -10
-8 9 -11 7 -12 -9 -8 -12 3 -18 10 -14 17 4 7 1 6 -9 -1 -8 -7 -18 -10 -22 -6
-10 11 -37 12 -30 2 3 -5 10 -7 15 -4 5 3 6 -1 2 -10 -4 -12 -8 -13 -13 -5 -4
7 -26 13 -48 13 -25 1 -39 5 -35 11 3 6 0 6 -7 -1 -10 -9 -10 -16 -2 -25 9
-11 2 -13 -31 -12 -23 0 -48 -4 -54 -9 -8 -6 -18 -6 -25 0 -25 20 -124 1 -111
-20 4 -7 -2 -5 -12 3 -17 14 -18 13 -13 -2 6 -14 2 -15 -23 -8 -18 5 -29 5
-29 -1 0 -6 -5 -7 -10 -4 -6 4 -8 12 -4 18 3 7 -3 1 -14 -13 -11 -13 -18 -29
-15 -34 4 -5 0 -6 -8 0 -21 13 -39 14 -39 1 0 -7 -5 -5 -10 3 -8 12 -10 12
-10 1 0 -11 -3 -11 -15 -1 -11 9 -19 10 -28 1 -10 -8 -17 -7 -27 2 -9 8 -11 8
-6 0 3 -6 3 -13 -1 -16 -5 -2 -3 -3 3 -1 6 1 16 -8 24 -19 11 -19 11 -20 -1
-10 -13 10 -42 17 -63 14 -5 0 -2 -9 5 -18 7 -10 2 -8 -12 5 -14 12 -29 22
-35 22 -5 0 -2 -5 6 -11 12 -9 11 -10 -7 -6 -15 3 -20 1 -16 -9 2 -7 11 -10
18 -8 7 3 15 1 19 -4 3 -5 -13 -8 -34 -6 -29 2 -38 -1 -33 -9 4 -7 -2 -5 -12
3 -10 8 -16 10 -12 3 4 -6 3 -14 -3 -18 -5 -3 -10 -2 -10 4 0 5 -9 9 -19 8
-11 0 -17 -5 -15 -9 3 -5 10 -6 15 -3 5 4 9 1 9 -5 0 -7 -12 -9 -29 -7 -22 4
-28 1 -25 -8 3 -7 0 -16 -7 -21 -7 -4 -10 -3 -6 2 3 5 -6 15 -20 21 -25 12
-25 12 -7 -9 17 -19 17 -21 2 -15 -10 3 -20 2 -23 -4 -4 -5 -11 -7 -16 -3 -15
9 -59 -5 -59 -18 0 -9 3 -9 12 0 15 15 28 15 28 1 0 -5 -4 -7 -10 -4 -5 3 -10
1 -10 -4 0 -16 -16 -13 -33 4 -13 13 -16 13 -21 -1 -4 -10 -12 -14 -22 -10
-15 6 -15 4 -3 -10 13 -16 12 -16 -8 -6 -31 17 -40 15 -17 -3 16 -13 16 -14 2
-9 -10 3 -18 2 -18 -4 0 -5 -7 -12 -15 -16 -13 -5 -14 -2 -5 17 10 20 10 20
-3 5 -8 -10 -17 -15 -21 -11 -4 4 -4 -1 0 -10 5 -15 2 -17 -20 -13 -29 5 -45
-11 -25 -26 11 -8 10 -9 -3 -4 -11 3 -18 0 -18 -7 0 -8 -4 -7 -10 3 -8 13 -11
13 -22 1 -10 -10 -10 -12 0 -7 14 8 17 -10 3 -18 -5 -4 -21 -7 -34 -8 -14 -1
-23 -6 -21 -10 3 -4 12 -5 22 -2 14 5 14 4 3 -4 -8 -6 -21 -8 -29 -4 -9 3 -13
1 -10 -4 3 -5 -1 -15 -9 -23 -13 -12 -15 -11 -9 10 3 13 3 18 0 12 -3 -7 -13
-13 -22 -14 -11 0 -12 -2 -4 -6 19 -8 14 -22 -7 -18 -13 2 -18 -1 -15 -10 3
-7 0 -16 -7 -21 -8 -4 -10 -3 -5 4 4 7 2 12 -3 12 -6 0 -11 -9 -11 -20 0 -11
-5 -20 -11 -20 -5 0 -8 4 -5 9 3 5 -1 11 -9 14 -9 4 -12 1 -8 -9 3 -7 1 -14
-5 -14 -6 0 -13 6 -15 13 -4 8 -6 7 -6 -4 -1 -8 5 -21 12 -29 10 -12 9 -12 -6
0 -10 8 -27 14 -37 15 -17 1 -17 0 -2 -24 9 -15 10 -21 3 -14 -9 7 -21 9 -36
3 -13 -5 -26 -7 -29 -4 -3 2 -4 1 -1 -3 3 -3 -1 -13 -7 -22 -10 -12 -7 -12 8
2 17 14 21 15 21 2 0 -8 -3 -13 -5 -10 -9 9 -32 -17 -25 -29 4 -6 -1 -5 -10 3
-18 15 -23 26 -7 16 6 -3 7 1 3 10 -4 13 -8 14 -14 4 -4 -7 -5 -17 -3 -21 3
-5 -2 -11 -10 -14 -9 -3 -16 -15 -16 -26 0 -17 -3 -18 -14 -9 -10 8 -16 9 -21
1 -8 -13 3 -32 15 -25 5 3 11 1 15 -4 6 -10 -27 -7 -44 3 -5 3 -11 -1 -14 -9
-4 -9 -1 -12 9 -8 7 3 14 1 14 -4 0 -8 -14 -11 -57 -15 -6 -1 -9 -7 -6 -14 2
-7 0 -21 -7 -31 -10 -16 -10 -16 -5 4 5 18 3 22 -10 17 -9 -4 -14 -13 -10 -21
4 -12 0 -14 -15 -10 -11 3 -23 1 -26 -4 -3 -5 -10 -7 -15 -4 -5 4 -9 2 -9 -4
0 -5 6 -12 13 -14 7 -3 4 -6 -7 -6 -16 -1 -17 -3 -5 -18 10 -14 8 -13 -10 2
l-24 20 5 -28 c5 -27 5 -27 -15 -10 -11 10 -17 12 -13 6 4 -7 2 -13 -4 -13 -6
0 -8 -5 -4 -11 4 -8 -1 -9 -17 -4 -19 5 -21 4 -9 -5 11 -8 12 -13 3 -16 -7 -3
-11 -11 -9 -17 1 -7 1 -9 -1 -4 -3 4 -9 7 -14 7 -6 0 -7 -5 -3 -12 5 -8 2 -9
-10 -5 -14 6 -15 3 -5 -14 10 -19 9 -20 -10 -10 -17 10 -20 9 -14 -5 5 -13 3
-15 -8 -9 -12 8 -12 6 0 -9 8 -9 10 -16 5 -15 -22 4 -34 -2 -34 -17 0 -14 -3
-14 -15 -4 -21 17 -19 5 2 -16 16 -16 16 -16 -7 -9 -21 7 -23 6 -13 -7 11 -12
9 -14 -10 -14 -14 1 -21 -4 -19 -13 2 -8 -3 -11 -12 -8 -9 4 -15 3 -15 -1 4
-22 -2 -42 -11 -37 -5 3 -10 2 -10 -4 0 -5 6 -12 13 -15 6 -3 2 -3 -10 0 -18
4 -21 1 -18 -15 4 -21 -19 -36 -37 -24 -6 3 -8 1 -5 -4 4 -6 0 -16 -8 -23 -8
-7 -15 -18 -15 -24 0 -6 8 -1 18 12 17 21 18 22 18 3 0 -11 -3 -18 -7 -15 -4
2 -12 -3 -19 -10 -6 -8 -20 -13 -30 -11 -16 3 -18 0 -10 -20 7 -19 5 -24 -11
-28 -13 -3 -19 -14 -19 -31 0 -14 -5 -26 -11 -26 -5 0 -7 6 -3 13 5 8 2 8 -9
-2 -19 -15 -22 -31 -6 -31 5 0 7 5 3 12 -4 7 -3 8 5 4 14 -9 5 -26 -14 -26 -8
0 -17 -5 -21 -12 -4 -6 -3 -8 3 -5 5 3 10 0 10 -7 0 -8 -6 -12 -13 -9 -6 2
-15 -1 -20 -8 -5 -8 -3 -10 7 -4 12 7 12 6 1 -7 -10 -13 -10 -17 0 -20 8 -3 6
-7 -6 -11 -9 -4 -15 -3 -12 1 2 4 0 14 -5 22 -9 13 -10 13 -8 0 3 -34 -2 -61
-10 -55 -6 3 -15 -4 -21 -15 -7 -13 -7 -20 0 -20 5 0 10 5 10 10 0 6 5 10 10
10 12 0 -21 -49 -33 -50 -5 0 -5 5 -1 12 4 6 3 8 -3 5 -5 -4 -10 -20 -11 -37
-1 -39 -10 -54 -25 -41 -9 7 -12 -1 -11 -30 0 -21 -3 -39 -8 -39 -5 0 -6 -6
-2 -12 6 -10 4 -10 -8 0 -14 11 -16 10 -11 -7 3 -12 1 -21 -6 -21 -6 0 -11 -5
-11 -11 0 -5 4 -7 10 -4 6 3 7 -1 4 -10 -5 -13 -9 -13 -22 -3 -10 8 -13 9 -9
1 10 -16 -3 -44 -17 -36 -6 3 -6 1 2 -8 6 -7 12 -21 12 -32 0 -17 -1 -17 -16
-3 -23 24 -27 19 -8 -9 9 -15 13 -25 8 -23 -5 2 -10 -1 -11 -6 -1 -5 -7 -12
-15 -17 -14 -9 -15 -12 -17 -60 0 -16 -5 -28 -10 -24 -5 3 -13 1 -16 -5 -4 -6
-1 -9 6 -8 20 5 21 -19 1 -24 -16 -4 -19 -14 -19 -49 0 -29 -4 -44 -14 -47
-11 -3 -11 -1 1 8 13 10 13 11 0 7 -11 -2 -15 -17 -15 -51 0 -36 -5 -51 -20
-63 -19 -15 -19 -15 5 -8 l25 6 -24 -19 c-15 -12 -22 -25 -18 -36 4 -9 1 -16
-6 -16 -7 -1 -6 -5 4 -13 13 -10 14 -15 3 -24 -10 -10 -14 -10 -17 0 -4 9 -6
9 -6 0 -1 -6 4 -15 9 -18 6 -3 10 -12 10 -18 0 -7 -4 -6 -11 3 -8 11 -9 5 -7
-27 2 -23 0 -39 -4 -37 -3 2 -9 0 -13 -6 -3 -5 -1 -10 6 -10 8 0 9 -4 0 -13
-8 -10 -7 -17 2 -27 9 -10 9 -11 0 -6 -7 4 -13 2 -13 -3 0 -6 6 -11 13 -11 8
0 8 -3 2 -8 -11 -8 -12 -43 -1 -60 3 -6 2 -13 -3 -17 -5 -3 -8 -14 -6 -25 2
-11 0 -22 -5 -25 -5 -3 -7 4 -5 15 2 11 0 20 -5 20 -4 0 -7 -20 -6 -45 1 -35
-1 -44 -12 -40 -7 2 -10 0 -7 -5 3 -6 13 -10 21 -10 8 0 14 -4 14 -10 0 -5 -3
-9 -7 -9 -22 4 -24 -3 -7 -23 10 -12 13 -18 7 -14 -10 5 -13 -4 -13 -36 0 -24
-6 -50 -12 -57 -10 -11 -10 -13 0 -7 9 5 12 -6 12 -46 0 -30 -6 -60 -12 -67
-9 -10 -9 -12 -1 -7 6 3 14 2 18 -4 3 -5 3 -10 -2 -10 -4 0 -8 -11 -8 -25 0
-14 2 -25 5 -25 3 0 5 -13 5 -30 0 -16 -2 -30 -5 -30 -10 0 0 -135 11 -138 6
-3 5 -10 -3 -20 -10 -12 -10 -14 0 -8 7 4 12 1 12 -9 0 -9 -4 -14 -8 -11 -4 2
-8 -6 -8 -19 0 -15 5 -21 13 -18 9 4 11 0 7 -12 -4 -10 -1 -21 7 -26 12 -7 12
-9 0 -9 -9 0 -10 -4 -4 -12 8 -11 10 -33 3 -40 -7 -10 -6 -38 2 -38 6 0 8 -9
5 -19 -2 -10 0 -25 5 -32 7 -10 8 -9 3 6 -4 14 -3 17 4 10 6 -6 11 -36 12 -68
1 -37 7 -61 17 -70 13 -9 14 -9 8 1 -4 6 -2 12 3 12 14 0 14 -17 1 -25 -6 -4
-8 -11 -4 -16 3 -5 9 -7 14 -4 4 3 6 -4 3 -15 -3 -11 -10 -17 -16 -13 -6 3 -7
1 -3 -6 6 -9 11 -9 22 0 12 10 13 9 8 -5 -5 -12 -2 -15 12 -10 15 5 16 4 4 -4
-8 -6 -17 -9 -21 -6 -4 2 -11 -1 -15 -7 -4 -8 -3 -9 4 -5 12 7 35 -27 25 -38
-3 -3 -1 -6 7 -6 10 0 10 -3 -1 -17 -11 -13 -11 -17 -1 -20 6 -3 10 -9 7 -14
-4 -5 2 -6 11 -2 12 4 15 2 12 -8 -3 -8 -1 -23 5 -33 8 -16 6 -18 -7 -13 -10
4 -15 3 -11 -3 3 -6 13 -10 21 -10 8 0 14 -5 14 -11 0 -5 5 -7 12 -3 7 4 8 3
4 -4 -4 -6 -14 -9 -24 -6 -15 5 -15 4 1 -6 10 -6 14 -16 10 -23 -4 -7 2 -5 12
3 11 9 16 10 11 3 -12 -21 -16 -54 -5 -48 5 4 7 10 4 15 -3 5 -1 12 5 15 6 4
10 3 9 -2 -1 -4 -1 -23 0 -42 1 -26 5 -32 17 -27 8 3 12 2 9 -3 -3 -5 -2 -12
3 -15 4 -2 9 -22 10 -43 2 -20 9 -44 17 -53 7 -8 14 -18 14 -22 1 -5 3 -8 6
-8 3 0 10 0 16 0 5 0 7 5 3 12 -5 7 -3 8 5 4 9 -6 8 -13 -5 -27 -9 -11 -14
-22 -11 -26 4 -3 7 -1 7 5 0 7 8 12 18 12 14 0 15 -2 2 -10 -13 -8 -13 -13 -2
-30 7 -11 10 -25 7 -31 -4 -5 -3 -9 2 -8 20 5 43 -15 43 -37 0 -13 5 -24 11
-24 5 0 7 -5 4 -10 -4 -6 -3 -10 2 -9 28 5 36 -2 17 -16 -18 -14 -18 -14 4 -8
13 3 22 1 22 -6 0 -7 5 -9 12 -5 7 4 8 3 4 -5 -6 -9 -11 -9 -23 1 -15 12 -15
11 -3 -9 8 -12 18 -19 22 -17 4 3 8 0 8 -6 0 -6 5 -8 12 -4 7 4 8 3 4 -4 -4
-7 -1 -12 6 -12 10 0 10 -2 -1 -9 -10 -6 -10 -10 -1 -16 6 -4 9 -13 6 -21 -3
-8 0 -13 7 -11 7 1 11 -4 9 -11 -1 -7 5 -15 13 -18 8 -3 12 -11 8 -17 -3 -6
-1 -7 5 -3 6 4 9 13 6 21 -4 8 -10 12 -15 9 -15 -9 -10 3 8 17 10 9 14 9 10 2
-5 -7 2 -22 14 -34 14 -14 16 -20 7 -17 -11 5 -15 0 -15 -18 0 -20 1 -22 11
-9 8 11 15 12 26 4 13 -9 12 -10 -2 -5 -10 3 -18 1 -18 -4 0 -6 5 -10 11 -10
5 0 8 -4 4 -9 -3 -5 0 -13 6 -17 7 -4 9 -3 5 4 -3 6 -2 13 4 17 9 5 15 -23 11
-48 -1 -4 7 -3 18 2 21 12 32 5 25 -14 -3 -7 8 -18 25 -25 27 -11 29 -15 19
-34 l-11 -21 24 20 c13 11 18 13 12 5 -20 -22 -15 -32 10 -25 18 6 20 5 10 -6
-18 -18 -16 -28 5 -24 12 2 18 -3 19 -17 2 -27 12 -36 22 -19 6 10 10 9 14 -4
4 -9 3 -13 -3 -10 -6 3 -10 1 -10 -4 0 -6 7 -11 16 -11 8 0 13 -4 10 -9 -7
-11 22 -23 36 -14 7 3 8 1 4 -5 -4 -7 -2 -12 3 -12 6 0 11 -8 11 -17 1 -29 36
-62 67 -65 16 -1 30 -8 30 -15 0 -9 -4 -10 -13 -2 -8 7 -14 7 -19 -1 -3 -5 -4
-11 -1 -11 3 -1 11 -3 16 -4 6 -1 17 -3 25 -4 9 0 24 -15 33 -31 11 -21 23
-29 34 -26 10 2 21 -1 25 -6 3 -6 2 -9 -3 -6 -5 3 -18 2 -29 -3 -17 -7 -17 -8
8 -8 26 -1 31 -9 28 -41 -2 -13 0 -13 8 -1 5 8 7 21 4 30 -4 14 -3 14 5 1 6
-8 8 -18 6 -22 -3 -4 2 -8 11 -8 9 0 13 -4 10 -10 -3 -5 0 -10 7 -10 9 0 9 -3
-2 -10 -9 -6 -10 -10 -3 -10 6 0 15 5 18 10 5 8 11 7 20 0 8 -7 19 -9 24 -5 7
3 8 0 5 -10 -4 -10 -10 -12 -18 -6 -8 6 -17 6 -26 -1 -12 -8 -12 -9 2 -4 10 3
22 -2 27 -12 6 -9 11 -12 11 -6 0 12 30 15 30 2 0 -4 -6 -8 -12 -8 -9 0 -8 -3
2 -10 9 -6 20 -5 29 3 12 9 13 9 7 0 -4 -8 -2 -13 4 -13 6 0 8 -5 4 -12 -5 -8
0 -7 11 2 17 14 17 13 10 -10 -7 -22 -6 -23 9 -11 10 8 16 9 16 3 0 -6 6 -9
14 -6 8 3 17 1 20 -4 3 -5 -6 -8 -19 -6 -14 1 -28 -2 -31 -7 -3 -5 -2 -9 3 -8
37 6 72 -3 78 -21 3 -11 11 -20 16 -20 6 0 5 9 -1 23 -11 21 -10 21 4 3 9 -11
16 -24 16 -29 0 -5 6 -4 14 2 12 10 13 8 9 -8 -3 -12 -10 -18 -16 -14 -6 3 -7
1 -3 -6 4 -6 13 -8 19 -4 6 4 23 8 37 9 14 1 19 0 13 -3 -22 -8 -14 -33 10
-33 41 0 56 -3 51 -12 -3 -4 -13 -4 -23 1 -13 7 -18 6 -18 -4 0 -7 6 -11 14
-8 7 3 13 0 13 -7 0 -9 4 -9 17 1 11 10 14 10 9 2 -4 -7 -3 -13 3 -13 5 0 11
5 13 12 3 7 7 5 11 -6 4 -10 3 -15 -3 -11 -6 3 -10 1 -10 -5 0 -7 13 -10 32
-8 21 2 33 -2 35 -12 3 -11 2 -11 -4 -3 -6 8 -14 9 -23 3 -12 -8 -11 -10 5
-11 11 -1 28 -1 38 0 10 2 17 -5 17 -16 0 -15 -2 -16 -10 -3 -6 9 -10 10 -10
3 0 -20 18 -24 29 -6 10 17 10 17 11 -2 0 -17 2 -17 10 -5 8 12 10 12 10 1 0
-8 7 -11 20 -8 11 3 20 1 20 -5 0 -5 4 -6 10 -3 5 3 10 1 10 -4 0 -6 -5 -11
-12 -11 -20 0 -2 -11 27 -16 19 -3 24 -1 19 7 -5 8 -3 9 5 5 7 -5 10 -15 6
-24 -3 -9 -3 -13 1 -9 4 4 13 -1 21 -11 13 -15 13 -15 4 5 -12 25 -2 36 19 22
12 -7 12 -9 1 -9 -11 0 -11 -3 -1 -15 9 -10 17 -12 30 -5 13 7 21 5 31 -8 13
-15 12 -16 -3 -4 -12 10 -18 10 -24 1 -4 -7 -3 -9 4 -5 6 3 13 2 17 -3 3 -5
13 -9 23 -9 9 0 26 -3 36 -7 15 -7 17 -5 11 6 -7 11 -6 12 7 2 8 -7 17 -12 19
-10 2 1 -2 -4 -10 -10 -9 -8 -10 -13 -4 -13 7 0 19 8 29 17 16 16 16 16 10 -3
-4 -14 -2 -21 8 -21 9 0 13 4 10 9 -3 4 -1 8 4 8 5 0 14 -10 21 -23 11 -21 11
-21 8 -1 -4 19 -2 20 18 10 13 -6 21 -15 17 -21 -3 -5 2 -4 11 4 14 11 17 11
18 0 1 -8 1 -18 0 -22 -2 -10 41 12 52 27 6 7 7 5 4 -6 -8 -22 3 -30 21 -15
13 9 14 9 8 0 -4 -8 -1 -13 8 -13 9 0 16 5 16 12 0 6 3 8 6 5 4 -4 1 -14 -6
-22 -11 -13 -11 -16 1 -13 8 2 17 10 21 18 5 12 7 12 7 -2 1 -10 4 -18 9 -19
48 -4 83 -2 86 6 3 6 5 2 5 -9 1 -15 3 -16 16 -6 13 11 18 11 28 0 8 -8 8 -11
1 -7 -7 4 -18 -1 -25 -10 -12 -15 -12 -16 1 -8 24 15 52 17 44 3 -4 -7 -3 -8
5 -4 9 6 9 12 -1 24 -11 14 -9 14 8 -1 11 -9 24 -14 27 -10 4 3 7 0 7 -8 0
-11 2 -11 10 1 5 8 10 10 10 3 0 -12 24 -12 36 0 4 4 13 2 21 -4 7 -6 13 -8
13 -3 0 5 14 9 30 9 17 0 30 -4 30 -10 0 -5 5 -3 10 5 5 8 10 10 10 4 0 -17
28 -25 36 -12 5 7 2 8 -6 3 -8 -5 -11 -4 -6 3 10 17 36 3 29 -16 -3 -10 -1
-13 4 -7 11 13 32 19 66 17 18 -1 25 3 21 10 -5 7 -3 8 5 4 7 -5 10 -15 7 -25
-6 -14 -5 -15 6 0 7 9 19 14 27 11 9 -3 11 0 6 8 -6 10 -4 11 6 4 20 -12 38
-14 45 -3 3 5 12 5 22 0 19 -10 92 -9 108 1 6 4 11 1 11 -7 0 -8 -8 -12 -20
-9 -11 2 -26 0 -34 -5 -8 -4 11 -7 46 -7 34 0 61 3 61 7 0 5 -9 6 -20 4 -11
-2 -20 0 -20 6 0 5 10 7 23 5 12 -2 28 2 36 8 11 8 13 8 7 -1 -9 -17 16 -17
32 -1 9 9 12 9 12 0 0 -6 -8 -16 -17 -21 -10 -6 -13 -11 -6 -11 6 0 18 7 26
15 8 8 17 11 21 8 3 -4 6 0 6 8 0 12 2 12 9 0 8 -13 12 -13 27 0 14 11 16 11
10 0 -6 -9 -5 -12 5 -9 8 3 23 1 34 -5 17 -9 18 -8 8 5 -10 12 -10 14 5 13 9
0 23 -4 30 -9 7 -4 12 -2 12 5 0 8 5 7 17 -2 15 -12 16 -12 10 3 -4 12 -2 15
8 11 8 -3 12 -10 8 -16 -3 -6 4 -3 18 6 26 19 43 22 34 8 -3 -5 -1 -12 4 -15
10 -7 9 13 -2 31 -5 9 0 9 23 3 16 -5 30 -5 30 -2 0 4 18 6 40 4 29 -3 40 -1
38 8 -2 7 6 14 17 15 11 2 30 6 42 8 17 4 21 2 17 -11 -5 -15 -4 -15 5 -1 6
10 22 15 41 14 25 -1 31 2 27 15 -5 18 18 21 42 5 10 -6 12 -4 6 5 -6 10 -3
12 13 8 14 -4 20 -2 15 5 -4 6 0 8 10 4 10 -3 17 -2 17 2 0 5 -6 11 -12 14 -7
3 7 5 32 5 65 0 87 3 72 9 -6 2 -10 9 -7 13 3 5 13 6 22 3 11 -5 14 -3 8 6 -6
10 -3 11 15 1 18 -10 21 -9 15 1 -6 9 -3 11 8 6 9 -3 19 -1 23 5 5 7 2 8 -6 3
-9 -6 -11 -4 -5 4 4 8 20 11 37 9 16 -3 31 -1 34 4 3 4 0 8 -7 8 -7 0 -9 3 -6
6 4 4 14 1 24 -7 15 -12 16 -12 11 3 -4 10 -1 19 8 22 22 9 26 7 18 -6 -4 -7
-3 -8 4 -4 7 4 12 13 12 21 0 8 5 17 12 21 6 4 8 3 5 -3 -4 -6 0 -13 8 -16 9
-4 12 -1 9 7 -7 18 12 30 22 15 5 -8 3 -9 -6 -4 -9 5 -11 4 -6 -4 4 -6 13 -8
19 -4 7 4 17 8 22 9 6 0 16 2 23 2 6 1 12 7 12 13 0 8 -5 7 -15 -1 -9 -7 -18
-10 -22 -6 -3 3 -1 6 5 6 6 0 9 8 6 18 -4 10 -2 13 3 7 11 -14 33 -17 33 -5 0
5 7 6 17 3 11 -4 14 -3 9 5 -4 8 0 12 11 12 15 0 16 2 3 10 -13 8 -13 10 2 10
11 0 15 6 11 18 -2 10 3 25 13 33 11 9 15 9 10 2 -4 -8 -2 -13 4 -13 6 0 8 -5
4 -12 -4 -7 -3 -8 4 -4 6 4 9 12 6 19 -2 7 4 22 16 32 11 10 20 15 20 10 0 -4
-8 -14 -17 -21 -17 -13 -17 -14 2 -7 11 3 23 11 27 17 5 7 8 7 8 -1 0 -7 5
-13 11 -13 5 0 7 5 4 10 -3 6 -2 10 4 10 5 0 12 -6 14 -12 3 -8 6 -5 6 5 1 10
6 15 11 12 16 -10 50 5 50 21 0 8 9 14 19 14 11 0 23 5 26 10 5 8 12 7 23 -2
15 -11 15 -11 6 2 -14 18 -14 50 -1 50 5 0 7 -7 3 -15 -3 -8 -1 -15 4 -15 6 0
10 7 10 15 0 8 9 15 20 15 11 0 20 5 20 11 0 5 -5 7 -12 3 -7 -4 -8 -3 -4 4 4
6 13 9 21 6 8 -4 12 -10 9 -15 -3 -5 2 -6 11 -2 9 3 13 9 8 12 -5 3 -9 12 -8
20 0 13 18 21 57 24 9 1 14 6 11 11 -4 5 2 7 13 3 18 -7 18 -7 0 8 -19 14 -19
15 7 15 15 0 27 5 27 10 0 6 5 10 11 10 5 0 7 -5 3 -12 -4 -7 -3 -8 5 -4 6 4
9 12 6 17 -4 5 1 9 9 9 9 0 16 5 16 11 0 5 -5 7 -12 3 -7 -5 -8 -3 -4 5 5 7
10 10 14 7 3 -3 10 1 16 10 6 8 21 16 33 16 17 2 20 6 12 25 -6 17 -5 21 6 16
8 -3 13 -8 10 -12 -2 -4 2 -8 10 -8 8 0 12 4 9 8 -2 4 2 13 9 21 7 7 16 21 19
30 7 17 23 19 48 3 12 -7 13 -6 4 6 -12 15 -15 48 -5 47 25 -2 41 4 35 14 -5
8 -2 9 10 5 10 -4 15 -3 11 3 -3 6 1 10 9 10 9 0 16 5 16 11 0 5 6 7 13 3 7
-5 6 0 -3 11 -14 17 -13 18 4 12 16 -6 17 -5 7 7 -10 12 -8 14 11 9 19 -4 20
-3 8 7 -12 9 -9 11 15 7 26 -5 27 -4 12 8 -15 11 -15 14 -2 25 8 7 12 17 8 23
-3 5 -1 7 4 4 6 -4 16 0 23 9 7 8 19 13 26 10 9 -3 11 0 7 11 -5 12 -2 15 10
10 11 -4 14 -2 10 8 -3 8 -10 12 -16 8 -6 -3 -7 -1 -3 5 3 6 15 9 26 7 13 -3
18 0 14 7 -4 6 1 17 10 24 10 7 17 16 17 21 -1 4 5 8 12 8 6 0 11 8 11 18 -2
15 1 16 14 5 13 -11 14 -10 4 9 -10 19 -9 23 8 28 11 4 17 11 14 17 -4 7 0 7
13 0 17 -10 19 -8 15 17 -2 18 2 32 14 42 15 11 16 12 9 0 -5 -10 -4 -12 3 -7
7 4 12 14 12 22 0 9 -5 12 -12 8 -7 -4 -8 -3 -4 5 6 9 12 9 24 -1 10 -7 14 -9
10 -4 -4 4 5 19 20 32 15 13 22 24 16 24 -7 0 -15 -7 -18 -16 -4 -9 -9 -15
-11 -12 -10 9 7 38 21 38 13 0 19 25 15 59 -2 11 0 11 12 0 8 -8 12 -21 10
-29 -4 -13 -4 -13 5 0 8 10 8 18 0 27 -10 13 -9 14 11 17 5 0 13 5 18 9 4 5 4
8 -2 7 -5 -1 -17 -2 -25 -1 -13 1 -13 3 0 10 8 6 18 7 22 5 4 -3 8 6 8 20 0
14 5 26 11 26 6 0 9 7 6 14 -4 10 -1 13 7 10 8 -3 17 0 22 7 4 7 3 10 -2 6 -5
-3 -10 3 -10 13 0 15 3 16 14 8 7 -6 12 -7 11 -2 -4 22 2 35 13 28 6 -4 8 -3
5 3 -4 6 0 19 7 29 11 15 12 22 3 33 -10 12 -8 12 13 1 21 -10 23 -10 13 1
-17 18 -16 40 1 33 8 -3 17 0 22 7 4 7 3 10 -4 5 -7 -4 -10 2 -9 14 1 13 6 19
16 15 11 -4 12 -3 1 10 -7 8 -17 12 -23 8 -6 -3 -7 -1 -3 6 4 6 12 9 17 6 5
-4 9 2 9 11 0 16 1 16 15 -2 15 -19 15 -19 8 1 -3 11 -11 23 -17 27 -7 5 -3 8
8 8 11 0 16 3 13 7 -4 3 1 11 10 18 13 9 13 14 3 20 -8 5 -11 4 -7 -2 3 -5 0
-10 -7 -10 -11 0 -12 4 -3 19 7 10 13 14 15 8 2 -5 8 -10 13 -10 4 0 5 7 2 17
-5 11 -3 14 6 8 10 -6 11 -3 2 14 -12 21 -4 28 15 13 5 -4 6 -3 2 2 -4 5 0 22
8 39 9 16 11 26 6 23 -6 -3 -9 5 -8 18 1 19 4 22 14 14 7 -6 15 -8 19 -4 3 3
1 6 -5 6 -17 0 -15 25 3 40 12 10 13 16 4 26 -7 8 -7 14 -2 14 6 0 9 18 7 40
-2 22 2 43 8 46 7 5 8 2 3 -6 -6 -9 -4 -11 5 -5 10 6 9 11 -6 23 -18 14 -18
14 0 8 14 -5 17 -3 12 11 -6 14 -4 14 15 -3 l23 -19 -22 32 c-16 22 -19 32
-10 36 10 3 10 8 -2 23 -14 19 -14 19 7 0 21 -18 22 -18 20 2 0 11 -5 18 -9
16 -4 -3 -8 0 -8 5 0 6 5 11 10 11 6 0 10 20 10 44 0 42 18 73 35 58 5 -4 5
-1 1 6 -6 10 -11 10 -22 1 -11 -9 -14 -8 -14 5 0 9 5 16 10 16 6 0 10 7 10 15
0 8 5 15 10 15 6 0 5 6 -2 14 -7 8 -17 11 -23 8 -5 -2 -5 1 2 8 10 11 15 11
29 -1 16 -12 17 -12 9 1 -14 22 -18 63 -6 56 5 -4 13 -2 16 4 4 6 1 9 -7 8 -9
-2 -13 12 -13 52 0 30 -3 60 -8 67 -5 8 0 10 15 6 13 -3 19 -1 13 4 -5 4 -16
18 -23 31 -10 19 -10 22 4 22 8 0 13 -4 10 -8 -3 -5 1 -9 9 -9 12 0 12 3 2 15
-6 8 -10 17 -9 19 2 3 0 8 -4 11 -4 4 -4 1 1 -7 5 -9 4 -12 -3 -7 -6 4 -9 13
-6 21 4 8 11 12 17 8 6 -3 7 -1 3 6 -4 6 -11 9 -16 6 -5 -3 -12 0 -16 6 -4 8
-3 9 4 5 7 -4 12 -2 12 5 0 8 5 7 18 -2 15 -12 16 -12 5 2 -7 9 -11 19 -8 23
3 3 -1 2 -7 -4 -16 -13 -28 -13 -28 1 0 5 3 8 8 6 4 -3 14 2 22 11 13 14 12
15 -3 9 -9 -3 -17 -2 -17 3 0 6 8 10 18 11 15 0 15 1 -2 8 -11 4 -20 15 -22
24 -1 10 2 14 7 11 6 -3 8 12 7 35 -2 23 -6 41 -10 41 -9 0 -5 36 5 46 12 12
8 24 -9 24 -9 0 -12 -5 -8 -12 4 -7 3 -8 -5 -4 -15 10 -4 26 17 26 13 0 14 2
3 9 -9 6 -10 11 -2 15 6 4 11 12 11 19 0 8 -3 8 -12 -1 -20 -20 -29 -13 -11 8
19 22 26 80 10 80 -5 0 -4 6 2 14 10 12 8 13 -8 9 -13 -3 -21 -1 -21 6 0 7 4
10 9 7 11 -7 8 21 -4 31 -4 5 -5 1 0 -7 5 -8 4 -12 0 -7 -5 4 -8 30 -6 57 2
38 -1 51 -14 56 -14 6 -14 8 2 21 16 13 16 14 1 9 -20 -6 -34 10 -16 17 10 4
9 6 -1 6 -11 1 -11 4 0 19 7 9 10 14 5 10 -11 -10 -45 33 -39 49 3 7 10 13 15
13 7 0 6 -5 -1 -14 -8 -10 -8 -16 3 -25 11 -9 16 -9 22 0 4 8 3 9 -4 5 -7 -4
-12 -1 -12 9 0 10 5 14 13 10 6 -4 2 2 -11 14 -13 12 -22 31 -22 48 0 48 -4
72 -11 67 -4 -2 -10 0 -14 5 -3 5 3 15 12 21 15 9 14 10 -6 4 -20 -5 -23 -3
-19 14 5 18 -24 57 -34 46 -8 -8 -2 31 7 45 6 10 4 12 -4 7 -8 -5 -11 -3 -10
5 4 22 -12 49 -28 49 -9 0 -13 6 -9 15 3 8 -2 19 -12 24 -9 6 -12 11 -6 11 12
0 14 50 2 50 -4 0 -8 5 -8 11 0 5 4 7 10 4 6 -4 7 1 3 11 -5 14 -8 13 -20 -7
-7 -13 -13 -17 -12 -9 4 43 -2 71 -13 64 -8 -5 -9 -2 -5 9 4 12 1 17 -11 17
-15 0 -15 2 -2 10 13 8 13 10 -2 10 -11 0 -15 6 -11 20 4 15 0 20 -13 20 -14
0 -16 2 -6 9 11 7 11 9 -2 14 -9 4 -16 14 -16 22 0 9 4 13 10 10 6 -3 7 1 4 9
-3 9 -10 16 -16 16 -5 0 -6 -4 -3 -10 3 -5 1 -10 -4 -10 -15 0 -14 13 2 29 10
11 10 13 0 7 -12 -7 -17 5 -16 40 0 7 -9 9 -21 6 -18 -5 -19 -3 -8 10 10 13 9
18 -5 29 -11 9 -14 10 -9 2 4 -7 2 -13 -3 -13 -6 0 -11 11 -11 25 0 14 -4 25
-9 25 -5 0 -14 14 -20 30 -5 17 -15 30 -20 30 -6 0 -11 9 -11 20 0 11 -5 20
-11 20 -5 0 -7 5 -3 12 4 7 3 8 -5 4 -9 -6 -9 -11 0 -22 9 -12 9 -13 -3 -9 -9
4 -15 19 -16 37 -1 30 -18 52 -33 42 -5 -2 -6 5 -4 17 3 15 1 18 -8 11 -8 -7
-17 -5 -27 6 -13 14 -12 15 3 9 9 -3 17 -2 17 3 0 10 -13 14 -40 11 -8 -1 -4
5 10 13 14 9 20 15 13 16 -6 0 -19 7 -27 16 -9 8 -16 11 -16 5 0 -5 8 -15 18
-20 9 -6 12 -11 5 -11 -6 0 -15 5 -18 11 -4 6 -14 8 -24 4 -13 -5 -14 -4 -3 6
17 18 15 39 -4 39 -9 0 -12 -5 -8 -12 5 -7 3 -8 -6 -3 -10 6 -9 11 5 22 18 12
18 13 -4 13 -12 0 -19 4 -16 10 6 9 -8 14 -28 11 -5 -1 -6 3 -3 8 4 5 3 11 -1
14 -5 2 -3 2 4 1 7 -2 15 1 18 7 4 5 3 9 -2 8 -33 -6 -51 2 -46 21 6 21 -6 27
-23 10 -7 -7 -10 -4 -10 12 1 15 -4 22 -14 20 -11 -3 -11 1 3 16 14 15 14 19
2 19 -8 0 -12 -4 -9 -9 3 -4 1 -8 -4 -8 -9 0 -24 24 -26 42 -1 3 -5 10 -10 15
-5 5 -6 3 -2 -4 4 -8 1 -13 -9 -13 -12 0 -15 6 -10 23 5 17 4 19 -4 7 -9 -13
-12 -11 -18 9 -6 23 -7 24 -14 5 -7 -16 -8 -17 -8 -1 -1 15 -12 22 -34 18 -5
-1 -6 3 -2 9 3 5 0 10 -8 10 -8 0 -17 13 -20 30 -7 30 -31 41 -41 18 -3 -7 -3
0 -1 16 2 16 1 26 -2 23 -3 -4 -14 -2 -24 3 -11 7 -19 6 -22 0 -3 -6 -4 -5 -3
2 2 7 12 12 22 11 12 -2 9 2 -9 10 -15 7 -24 17 -20 22 5 5 -1 3 -11 -5 -18
-14 -19 -14 -6 10 12 23 12 24 -3 11 -11 -9 -17 -10 -17 -2 0 6 -7 11 -15 11
-8 0 -12 6 -9 14 4 10 -1 14 -19 12 -13 -2 -24 2 -24 9 0 7 10 11 21 9 12 -2
3 3 -19 10 -22 8 -33 15 -25 16 10 1 9 4 -5 9 -11 5 -28 7 -38 5 -10 -2 -15 1
-12 7 4 5 1 9 -6 9 -7 0 -9 3 -6 6 4 4 13 1 22 -6 12 -10 15 -10 15 2 0 8 -11
15 -26 16 -15 1 -34 10 -43 20 -9 11 -21 17 -27 15 -6 -2 -17 4 -25 14 -13 17
-13 17 6 3 18 -14 19 -14 7 2 -8 10 -20 14 -29 11 -12 -5 -15 -2 -10 10 3 9 1
19 -5 23 -7 4 -8 3 -4 -4 11 -19 -5 -14 -21 6 -8 10 -11 11 -7 2 7 -12 5 -13
-8 -3 -8 7 -17 12 -19 10 -2 -1 3 4 11 12 13 11 12 12 -9 6 -13 -4 -21 -3 -18
2 3 5 2 15 -2 22 -6 10 -10 9 -14 -4 -5 -10 -3 -14 5 -9 7 4 8 3 4 -5 -9 -14
-26 -5 -26 15 0 8 -9 14 -20 14 -11 0 -20 5 -20 10 0 6 -5 10 -11 10 -5 0 -8
-4 -5 -8 3 -5 -1 -9 -9 -9 -11 0 -12 4 -3 14 6 7 7 17 3 21 -4 4 -10 2 -12 -5
-6 -16 -43 6 -43 25 0 7 -5 10 -10 7 -6 -4 -7 -11 -4 -17 4 -7 2 -8 -5 -4 -6
4 -8 12 -5 18 5 7 1 9 -9 5 -24 -9 -53 3 -36 14 8 4 10 11 6 15 -3 4 -14 1
-22 -6 -13 -11 -16 -11 -13 1 2 8 -4 13 -15 13 -14 -2 -16 3 -11 19 6 20 5 20
-10 8 -15 -12 -19 -13 -26 -1 -7 12 -11 11 -26 -1 -11 -9 -15 -9 -10 -1 4 7 2
12 -4 12 -6 0 -8 5 -5 10 6 10 -7 14 -32 11 -7 -1 -13 3 -13 9 0 5 -7 10 -15
10 -8 0 -15 5 -15 11 0 6 -12 8 -30 6 -20 -4 -36 1 -51 14 -13 11 -30 17 -41
13 -10 -3 -18 -1 -18 5 0 6 5 11 10 11 6 0 10 5 10 11 0 8 -4 8 -12 2 -7 -6
-22 -13 -32 -17 -16 -5 -17 -4 -6 9 11 13 8 15 -18 15 -17 0 -32 5 -34 10 -6
18 -47 20 -58 2 -9 -15 -10 -14 -5 4 4 14 1 21 -9 21 -9 0 -13 -3 -11 -7 2 -4
-2 -7 -10 -7 -8 0 -11 5 -8 10 4 6 0 8 -10 4 -10 -4 -20 0 -25 8 -5 11 -30 16
-81 18 -55 3 -77 8 -86 20 -13 18 -31 24 -20 8 3 -5 1 -13 -5 -16 -6 -4 -10
-3 -9 2 4 20 -2 24 -18 12 -9 -8 -14 -9 -10 -3 4 7 0 15 -9 18 -8 3 -12 11 -8
17 4 8 3 9 -5 5 -9 -6 -9 -11 -1 -21 22 -26 -58 -10 -81 16 -11 13 -18 18 -14
12 6 -12 -8 -18 -30 -13 -5 1 -47 2 -92 3 -45 1 -79 5 -76 10 3 5 -4 4 -16 -3
-15 -8 -26 -8 -34 -1 -8 6 -18 6 -27 1 -9 -6 -18 -3 -27 8 -11 14 -12 14 -8 1
7 -19 -32 -19 -45 0 -5 8 -10 9 -14 3 -3 -6 0 -13 6 -15 7 -3 3 -6 -9 -6 -13
-1 -23 4 -23 10 0 8 -4 8 -15 -1 -16 -13 -39 -4 -29 12 4 7 2 8 -5 4 -6 -4 -8
-13 -5 -19 4 -7 4 -9 -1 -5 -4 4 -14 3 -20 -2 -9 -8 -12 -4 -10 15 3 22 -3 37
-6 18z m-355 -75 c-3 -5 -10 -6 -15 -3 -5 4 -9 -2 -9 -11 0 -10 -3 -15 -6 -11
-11 10 3 34 20 34 8 0 13 -4 10 -9z m-274 -52 c0 -2 -7 -7 -16 -10 -8 -3 -12
-2 -9 4 6 10 25 14 25 6z m1585 -16 c3 -5 1 -10 -4 -10 -6 0 -11 5 -11 10 0 6
2 10 4 10 3 0 8 -4 11 -10z m-2028 -155 c0 -8 -4 -12 -9 -9 -5 3 -6 10 -3 15
9 13 12 11 12 -6z m-301 -207 c3 -4 -1 -5 -10 -4 -8 1 -18 5 -22 8 -3 4 1 5
10 4 8 -1 18 -5 22 -8z m-356 -242 c0 -2 -7 -7 -16 -10 -8 -3 -12 -2 -9 4 6
10 25 14 25 6z m-525 -516 c3 -5 1 -10 -4 -10 -6 0 -11 5 -11 10 0 6 2 10 4
10 3 0 8 -4 11 -10z m4792 -26 c-3 -3 -12 -4 -19 -1 -8 3 -5 6 6 6 11 1 17 -2
13 -5z m70 -109 c0 -8 -4 -12 -9 -9 -5 3 -6 10 -3 15 9 13 12 11 12 -6z m87
-141 c5 -14 4 -15 -9 -4 -17 14 -19 20 -6 20 5 0 12 -7 15 -16z m141 -293 c3
-5 2 -12 -3 -15 -5 -3 -9 1 -9 9 0 17 3 19 12 6z m-5428 -77 c-3 -3 -12 -4
-19 -1 -8 3 -5 6 6 6 11 1 17 -2 13 -5z m5480 -40 c-3 -3 -12 -4 -19 -1 -8 3
-5 6 6 6 11 1 17 -2 13 -5z m36 -109 c-3 -9 -8 -14 -10 -11 -3 3 -2 9 2 15 9
16 15 13 8 -4z m30 -69 c4 -10 1 -13 -8 -9 -8 3 -12 9 -9 14 7 12 11 11 17 -5z
m17 -32 c0 -8 -19 -13 -24 -6 -3 5 1 9 9 9 8 0 15 -2 15 -3z m50 -224 c0 -5
-7 -7 -15 -4 -8 4 -15 8 -15 10 0 2 7 4 15 4 8 0 15 -4 15 -10z m35 -183 c2
-15 -2 -24 -11 -24 -11 0 -11 3 -2 14 7 9 8 17 2 21 -5 4 -10 14 -12 22 -3 12
-1 12 9 3 6 -6 13 -22 14 -36z m-5828 -649 c-3 -7 -5 -2 -5 12 0 14 2 19 5 13
2 -7 2 -19 0 -25z m34 -225 c13 -16 12 -17 -3 -4 -10 7 -18 15 -18 17 0 8 8 3
21 -13z m37 -152 c-7 -9 -13 -18 -15 -20 -1 -2 -1 5 0 16 0 11 7 20 14 20 10
0 10 -4 1 -16z m5672 -87 c0 -8 -19 -13 -24 -6 -3 5 1 9 9 9 8 0 15 -2 15 -3z
m-45 -104 c3 -5 1 -10 -4 -10 -6 0 -11 5 -11 10 0 6 2 10 4 10 3 0 8 -4 11
-10z m-5560 -28 c-3 -3 -11 0 -18 7 -9 10 -8 11 6 5 10 -3 15 -9 12 -12z m99
-190 c3 -5 -1 -9 -9 -9 -8 0 -12 4 -9 9 3 4 7 8 9 8 2 0 6 -4 9 -8z m5324
-112 c-7 -10 -14 -17 -17 -15 -4 4 18 35 25 35 2 0 -1 -9 -8 -20z m-5292 -7
c0 -10 5 -17 12 -15 8 1 11 -2 7 -9 -5 -8 -12 -6 -22 4 -9 8 -12 20 -9 26 10
16 14 14 12 -6z m69 -122 c-6 -5 -25 10 -25 20 0 5 6 4 14 -3 8 -7 12 -15 11
-17z m25 -17 c0 -8 -19 -13 -24 -6 -3 5 1 9 9 9 8 0 15 -2 15 -3z m128 -229
c-3 -3 -9 2 -12 12 -6 14 -5 15 5 6 7 -7 10 -15 7 -18z m4532 -355 c0 -5 -2
-10 -4 -10 -3 0 -8 5 -11 10 -3 6 -1 10 4 10 6 0 11 -4 11 -10z m-4155 -59
c-3 -5 5 -17 17 -25 12 -9 18 -16 12 -16 -15 0 -45 35 -37 43 9 10 15 8 8 -2z
m155 -115 c0 -3 -4 -8 -10 -11 -5 -3 -10 -1 -10 4 0 6 5 11 10 11 6 0 10 -2
10 -4z m3490 -230 c0 -11 -19 -15 -25 -6 -3 5 1 10 9 10 9 0 16 -2 16 -4z
m-65 -46 c-3 -5 -12 -10 -18 -10 -7 0 -6 4 3 10 19 12 23 12 15 0z"/>
<path d="M4761 7927 c-8 -10 -7 -14 2 -14 8 0 14 6 14 14 0 7 -1 13 -2 13 -2
0 -8 -6 -14 -13z"/>
<path d="M4710 7919 c0 -5 -4 -7 -10 -4 -5 3 -10 1 -10 -4 0 -14 17 -14 25 -1
4 6 11 7 17 4 7 -4 8 -2 4 4 -9 15 -26 16 -26 1z"/>
<path d="M5525 7920 c3 -5 8 -10 11 -10 2 0 4 5 4 10 0 6 -5 10 -11 10 -5 0
-7 -4 -4 -10z"/>
<path d="M5676 7902 c-4 -7 -4 -12 1 -13 4 0 16 -2 26 -4 9 -2 15 1 11 6 -3 5
-9 7 -14 4 -4 -3 -10 0 -12 7 -3 9 -6 9 -12 0z"/>
<path d="M4426 7862 c-3 -5 1 -9 9 -9 8 0 15 4 15 9 0 4 -4 8 -9 8 -6 0 -12
-4 -15 -8z"/>
<path d="M6131 7771 c-8 -5 -9 -11 -3 -15 5 -3 12 1 16 9 6 17 6 18 -13 6z"/>
<path d="M6285 7700 c-3 -6 1 -7 9 -4 18 7 21 14 7 14 -6 0 -13 -4 -16 -10z"/>
<path d="M6430 7635 c-14 -8 -20 -14 -14 -15 5 0 19 7 30 15 24 18 16 19 -16
0z"/>
<path d="M6485 7600 c3 -5 8 -10 11 -10 2 0 4 5 4 10 0 6 -5 10 -11 10 -5 0
-7 -4 -4 -10z"/>
<path d="M3675 7570 c-3 -5 -1 -10 4 -10 6 0 11 5 11 10 0 6 -2 10 -4 10 -3 0
-8 -4 -11 -10z"/>
<path d="M7121 7134 c0 -11 3 -14 6 -6 3 7 2 16 -1 19 -3 4 -6 -2 -5 -13z"/>
<path d="M7140 7121 c0 -10 19 -25 25 -20 1 2 -3 10 -11 17 -8 7 -14 8 -14 3z"/>
<path d="M7855 6101 c-3 -5 -1 -12 5 -16 5 -3 10 1 10 9 0 18 -6 21 -15 7z"/>
<path d="M2224 5402 c3 -5 0 -13 -6 -15 -9 -4 -10 -6 -1 -6 17 -1 25 16 12 25
-7 4 -9 3 -5 -4z"/>
<path d="M8063 5245 c0 -8 4 -12 9 -9 5 3 6 10 3 15 -9 13 -12 11 -12 -6z"/>
<path d="M8070 5130 c-9 -6 -10 -10 -3 -10 6 0 15 5 18 10 8 12 4 12 -15 0z"/>
<path d="M8077 4875 c-4 -8 -1 -17 6 -21 7 -4 9 -4 5 1 -4 4 -3 14 3 22 7 8 8
13 1 13 -5 0 -12 -7 -15 -15z"/>
<path d="M8015 4460 c3 -5 8 -10 11 -10 2 0 4 5 4 10 0 6 -5 10 -11 10 -5 0
-7 -4 -4 -10z"/>
<path d="M7995 4369 c-4 -6 -5 -12 -2 -15 2 -3 7 2 10 11 7 17 1 20 -8 4z"/>
<path d="M2436 3912 c-3 -5 1 -9 9 -9 8 0 12 4 9 9 -3 4 -7 8 -9 8 -2 0 -6 -4
-9 -8z"/>
<path d="M7510 3400 c0 -5 5 -10 11 -10 5 0 7 5 4 10 -3 6 -8 10 -11 10 -2 0
-4 -4 -4 -10z"/>
<path d="M2835 3309 c-4 -6 -5 -12 -2 -15 2 -3 7 2 10 11 7 17 1 20 -8 4z"/>
<path d="M2875 3260 c3 -5 8 -10 11 -10 2 0 4 5 4 10 0 6 -5 10 -11 10 -5 0
-7 -4 -4 -10z"/>
<path d="M7340 3205 c-11 -13 -10 -14 4 -9 9 3 16 10 16 15 0 13 -6 11 -20 -6z"/>
<path d="M3030 3080 c0 -5 7 -10 16 -10 8 0 12 5 9 10 -3 6 -10 10 -16 10 -5
0 -9 -4 -9 -10z"/>
<path d="M7186 3052 c-3 -5 1 -9 9 -9 8 0 12 4 9 9 -3 4 -7 8 -9 8 -2 0 -6 -4
-9 -8z"/>
<path d="M3170 2956 c0 -2 7 -7 16 -10 8 -3 12 -2 9 4 -6 10 -25 14 -25 6z"/>
<path d="M6880 2800 c-9 -6 -10 -10 -3 -10 6 0 15 5 18 10 8 12 4 12 -15 0z"/>
<path d="M3515 2670 c-3 -6 1 -7 9 -4 18 7 21 14 7 14 -6 0 -13 -4 -16 -10z"/>
<path d="M5931 2314 c0 -11 3 -14 6 -6 3 7 2 16 -1 19 -3 4 -6 -2 -5 -13z"/>
<path d="M5766 2279 c2 -4 13 -7 24 -6 23 2 17 10 -10 12 -10 1 -17 -2 -14 -6z"/>
<path d="M5095 2231 c-3 -6 -14 -8 -24 -6 -11 2 -27 -3 -38 -11 -17 -14 -17
-15 2 -6 11 5 37 8 57 7 30 -1 35 1 26 12 -13 16 -15 16 -23 4z"/>
<path d="M5140 2220 c0 -5 5 -10 11 -10 5 0 7 5 4 10 -3 6 -8 10 -11 10 -2 0
-4 -4 -4 -10z"/>
</g>
</svg>
